<?xml version="1.0" ?><svg viewBox="0 0 32 32" xmlns="http://www.w3.org/2000/svg"><title/><g data-name="locker, door, school, metal, storage, safety, lock, box, locker room, cabinet" id="locker_door_school_metal_storage_safety_lock_box_locker_room_cabinet"><path d="M27,2H18a3,3,0,0,0-2,.78A3,3,0,0,0,14,2H5A3,3,0,0,0,2,5V24a3,3,0,0,0,3,3v2a1,1,0,0,0,2,0V27h7a3,3,0,0,0,2-.78A3,3,0,0,0,18,27h7v2a1,1,0,0,0,2,0V27a3,3,0,0,0,3-3V5A3,3,0,0,0,27,2ZM14,25H5a1,1,0,0,1-1-1V5A1,1,0,0,1,5,4h9a1,1,0,0,1,1,1V24A1,1,0,0,1,14,25Zm14-1a1,1,0,0,1-1,1H18a1,1,0,0,1-1-1V5a1,1,0,0,1,1-1h9a1,1,0,0,1,1,1Z"/><path d="M12,6H7A1,1,0,0,0,7,8h5a1,1,0,0,0,0-2Z"/><path d="M12,10H7a1,1,0,0,0,0,2h5a1,1,0,0,0,0-2Z"/><path d="M25,6H20a1,1,0,0,0,0,2h5a1,1,0,0,0,0-2Z"/><path d="M25,10H20a1,1,0,0,0,0,2h5a1,1,0,0,0,0-2Z"/><path d="M7,16a1,1,0,0,0-1,1v1a1,1,0,0,0,2,0V17A1,1,0,0,0,7,16Z"/><path d="M20,16a1,1,0,0,0-1,1v1a1,1,0,1,0,2,0V17A1,1,0,0,0,20,16Z"/></g></svg>